<?xml version="1.0" encoding="UTF-8" standalone="no"?>
<!-- Created with Inkscape (http://www.inkscape.org/) -->

<svg
   xmlns:dc="http://purl.org/dc/elements/1.1/"
   xmlns:cc="http://creativecommons.org/ns#"
   xmlns:rdf="http://www.w3.org/1999/02/22-rdf-syntax-ns#"
   xmlns:svg="http://www.w3.org/2000/svg"
   xmlns="http://www.w3.org/2000/svg"
   xmlns:xlink="http://www.w3.org/1999/xlink"
   xmlns:sodipodi="http://sodipodi.sourceforge.net/DTD/sodipodi-0.dtd"
   xmlns:inkscape="http://www.inkscape.org/namespaces/inkscape"
   width="250"
   height="250"
   id="svg2"
   version="1.1"
   inkscape:version="0.48.0 r9654"
   sodipodi:docname="Ministry of Health Logo.svg">
  <defs
     id="defs4">
    <linearGradient
       inkscape:collect="always"
       id="linearGradient3796">
      <stop
         style="stop-color:#6ac6eb;stop-opacity:1"
         offset="0"
         id="stop3798" />
      <stop
         id="stop3804"
         offset="0.63262963"
         style="stop-color:#57acd8;stop-opacity:1;" />
      <stop
         style="stop-color:#108ec8;stop-opacity:1"
         offset="1"
         id="stop3800" />
    </linearGradient>
    <radialGradient
       inkscape:collect="always"
       xlink:href="#linearGradient3796"
       id="radialGradient3802"
       cx="123.12812"
       cy="125.20798"
       fx="123.12812"
       fy="125.20798"
       r="95.341927"
       gradientUnits="userSpaceOnUse" />
    <radialGradient
       inkscape:collect="always"
       xlink:href="#linearGradient3796"
       id="radialGradient3911"
       gradientUnits="userSpaceOnUse"
       cx="123.12812"
       cy="125.20798"
       fx="123.12812"
       fy="125.20798"
       r="95.341927" />
    <clipPath
       clipPathUnits="userSpaceOnUse"
       id="clipPath3930">
      <path
         style="color:#000000;fill:#eaffff;fill-opacity:1;stroke:#abd8e8;stroke-width:1;stroke-opacity:1;marker:none;visibility:visible;display:inline;overflow:visible;enable-background:accumulate"
         d="m 323.86703,360.54361 c -3.1861,0.0568 -6.59464,0.4401 -10.21875,1.1875 -5.85855,1.96431 -9.20611,5.45097 -10.34375,8.28125 -0.0786,0.6094 -0.17373,1.22134 -0.1875,1.8125 -8.61043,0.34113 -17.60935,-2.91011 -22.53125,-9.125 -0.004,1.97992 1.77882,2.92888 1.84375,4.59375 -0.50642,0.37983 -4.24122,-2.00879 -4.46875,-1.78125 5.85923,6.59196 18.77351,10.51776 27.21875,9.15625 0.009,0.003 0.0226,-0.003 0.0312,0 0.56029,0.20963 1.2492,0.40803 2.125,0.53125 2.61528,1.91773 5.74092,0.51659 11.17778,2.28437 7.58603,2.46657 11.49724,-1.53849 15.1875,-2.62604 9.82155,-1.2516 16.48767,15.87026 0.38477,21.96667 -20.90047,7.9127 -26.65408,12.33669 -33.40625,19.625 -4.93122,5.32276 -6.21272,15.19129 1.21875,22.4375 8.41859,8.20873 18.98688,10.95781 27.625,13.90625 5.08472,1.73556 7.87933,5.19732 0.34375,9.78125 l -12.75,7.75 c -11.67156,7.09986 -9.74867,16.18143 -2.15625,22.0625 l 14.03125,10.875 c 2.64149,2.04609 8.55057,9.86111 7.28125,13.03125 2.27019,-4.0984 10.58776,-12.45644 -7.96551,-24.81763 -5.56406,-3.70707 -18.32535,-11.21252 5.77801,-22.18237 2.39504,-1.09002 34.79094,-11.29609 -7.8125,-32.15625 -13.45456,-6.58783 -22.73856,-14.17071 4.03125,-23.65625 8.63675,-3.06032 15.28778,-6.75609 22.26214,-12.68151 5.57682,-4.73807 11.08297,-23.06909 -4.73089,-33.34974 -6.69253,-4.35083 -14.41045,-7.07677 -23.96875,-6.90625 z m -5.75,4.6875 c 1.25568,-0.0301 2.50518,0.38393 2.90625,1.25 -1.40848,1.57122 -4.55937,0.99302 -5.90625,0.125 0.47443,-0.88945 1.74432,-1.34487 3,-1.375 z"
         id="path3932"
         inkscape:connector-curvature="0"
         sodipodi:nodetypes="scccccccccscsssscccccssssssssccs" />
    </clipPath>
    <filter
       inkscape:collect="always"
       id="filter3946">
      <feGaussianBlur
         inkscape:collect="always"
         stdDeviation="1.5907298"
         id="feGaussianBlur3948" />
    </filter>
    <filter
       inkscape:collect="always"
       id="filter3958"
       x="-0.20023644"
       width="1.4004729"
       y="-0.064840034"
       height="1.1296801">
      <feGaussianBlur
         inkscape:collect="always"
         stdDeviation="4.6987535"
         id="feGaussianBlur3960" />
    </filter>
  </defs>
  <sodipodi:namedview
     id="base"
     pagecolor="#ffffff"
     bordercolor="#666666"
     borderopacity="1.0"
     inkscape:pageopacity="0.0"
     inkscape:pageshadow="2"
     inkscape:zoom="2.404"
     inkscape:cx="125"
     inkscape:cy="125"
     inkscape:document-units="px"
     inkscape:current-layer="layer1"
     showgrid="false"
     fit-margin-top="0"
     fit-margin-left="0"
     fit-margin-right="0"
     fit-margin-bottom="0"
     inkscape:window-width="1440"
     inkscape:window-height="820"
     inkscape:window-x="-8"
     inkscape:window-y="-8"
     inkscape:window-maximized="1" />
  <metadata
     id="metadata7">
    <rdf:RDF>
      <cc:Work
         rdf:about="">
        <dc:format>image/svg+xml</dc:format>
        <dc:type
           rdf:resource="http://purl.org/dc/dcmitype/StillImage" />
        <dc:title />
      </cc:Work>
    </rdf:RDF>
  </metadata>
  <g
     inkscape:label="Layer 1"
     inkscape:groupmode="layer"
     id="layer1"
     transform="translate(-202.80453,-299.91861)">
    <g
       id="g3875"
       transform="translate(-0.20799466,0)">
      <path
         sodipodi:type="arc"
         style="color:#000000;fill:#005799;fill-opacity:1;stroke:#094170;stroke-width:1.18798566;stroke-opacity:1;marker:none;visibility:visible;display:inline;overflow:visible;enable-background:accumulate"
         id="path3806"
         sodipodi:cx="123.12812"
         sodipodi:cy="125.20798"
         sodipodi:rx="94.841927"
         sodipodi:ry="94.841927"
         d="m 217.97005,125.20798 c 0,52.37975 -42.46218,94.84192 -94.84193,94.84192 -52.379749,0 -94.841926,-42.46217 -94.841926,-94.84192 0,-52.379752 42.462177,-94.841929 94.841926,-94.841929 52.37975,0 94.84193,42.462177 94.84193,94.841929 z"
         transform="matrix(1.2626415,0,0,1.2626415,172.54585,267.62208)" />
      <path
         transform="translate(204.88439,300.50689)"
         d="m 217.97005,125.20798 c 0,52.37975 -42.46218,94.84192 -94.84193,94.84192 -52.379749,0 -94.841926,-42.46217 -94.841926,-94.84192 0,-52.379752 42.462177,-94.841929 94.841926,-94.841929 52.37975,0 94.84193,42.462177 94.84193,94.841929 z"
         sodipodi:ry="94.841927"
         sodipodi:rx="94.841927"
         sodipodi:cy="125.20798"
         sodipodi:cx="123.12812"
         id="path3026"
         style="color:#000000;fill:url(#radialGradient3911);fill-opacity:1;stroke:#084374;stroke-width:1.5;stroke-opacity:1;marker:none;visibility:visible;display:inline;overflow:visible;enable-background:accumulate"
         sodipodi:type="arc" />
      <path
         sodipodi:nodetypes="ccccc"
         inkscape:connector-curvature="0"
         id="path3004"
         d="m 321.97813,518.72963 -4.78909,-176.32117 c -0.38679,-7.44514 19.52718,-7.85236 19.11577,0.31351 l -5.92548,175.80472 z"
         style="color:#000000;fill:#eaffff;fill-opacity:1;fill-rule:nonzero;stroke:#abd8e8;stroke-width:1;stroke-linecap:square;stroke-linejoin:round;stroke-miterlimit:4;stroke-opacity:1;stroke-dasharray:none;stroke-dashoffset:0;marker:none;visibility:visible;display:inline;overflow:visible;enable-background:accumulate" />
      <rect
         y="363.77054"
         x="313.24545"
         height="6.2396007"
         width="9.7753744"
         id="rect3913"
         style="color:#000000;fill:#5bb2dc;fill-opacity:1;fill-rule:nonzero;stroke:#084374;stroke-width:1.5;stroke-linecap:square;stroke-linejoin:round;stroke-miterlimit:4;stroke-opacity:1;stroke-dasharray:none;stroke-dashoffset:0;marker:none;visibility:visible;display:inline;overflow:visible;enable-background:accumulate" />
      <path
         sodipodi:nodetypes="scccccccccscsssscccccssssssssccs"
         inkscape:connector-curvature="0"
         id="path2996"
         d="m 323.86703,360.54361 c -3.1861,0.0568 -6.59464,0.4401 -10.21875,1.1875 -5.85855,1.96431 -9.20611,5.45097 -10.34375,8.28125 -0.0786,0.6094 -0.17373,1.22134 -0.1875,1.8125 -8.61043,0.34113 -17.60935,-2.91011 -22.53125,-9.125 -0.004,1.97992 1.77882,2.92888 1.84375,4.59375 -0.50642,0.37983 -4.24122,-2.00879 -4.46875,-1.78125 5.82413,6.45158 18.5579,9.65532 27.21875,9.15625 0.009,0.003 0.0226,-0.003 0.0312,0 0.56029,0.20963 1.2492,0.40803 2.125,0.53125 2.61528,1.91773 5.74092,0.51659 11.17778,2.28437 7.58603,2.46657 11.49724,-1.53849 15.1875,-2.62604 9.82155,-1.2516 16.48767,15.87026 0.38477,21.96667 -20.90047,7.9127 -26.65408,12.33669 -33.40625,19.625 -4.93122,5.32276 -6.21272,15.19129 1.21875,22.4375 8.41859,8.20873 18.98688,10.95781 27.625,13.90625 5.08472,1.73556 7.87933,5.19732 0.34375,9.78125 l -12.75,7.75 c -11.67156,7.09986 -9.74867,16.18143 -2.15625,22.0625 l 14.03125,10.875 c 2.64149,2.04609 8.55057,9.86111 7.28125,13.03125 2.27019,-4.0984 10.58776,-12.45644 -7.96551,-24.81763 -5.56406,-3.70707 -18.32535,-11.21252 5.77801,-22.18237 2.39504,-1.09002 34.79094,-11.29609 -7.8125,-32.15625 -13.45456,-6.58783 -22.73856,-14.17071 4.03125,-23.65625 8.63675,-3.06032 15.28778,-6.75609 22.26214,-12.68151 5.57682,-4.73807 11.08297,-23.06909 -4.73089,-33.34974 -6.69253,-4.35083 -14.41045,-7.07677 -23.96875,-6.90625 z m -5.75,4.6875 c 1.25568,-0.0301 2.50518,0.38393 2.90625,1.25 -1.40848,1.57122 -4.55937,0.99302 -5.90625,0.125 0.47443,-0.88945 1.74432,-1.34487 3,-1.375 z"
         style="color:#000000;fill:#eaffff;fill-opacity:1;stroke:none;stroke-width:1;stroke-opacity:1;marker:none;visibility:visible;display:inline;overflow:visible;enable-background:accumulate" />
      <g
         id="g3926"
         clip-path="url(#clipPath3930)">
        <path
           sodipodi:nodetypes="csssssscssssssccc"
           transform="translate(7.29704,299.91861)"
           inkscape:connector-curvature="0"
           id="path3915"
           d="m 328.38126,60.906457 c 9.39374,4.85719 13.46343,20.224647 12.01331,29.89245 -1.49506,9.967493 -7.97241,14.421483 -15.09781,20.313873 -2.31443,1.91394 -4.50064,4.25407 -7.02129,5.88514 -3.0145,1.95064 -6.09892,3.44071 -8.01564,5.35751 -0.35176,0.35177 3.99015,4.9163 4.4644,5.86485 2.64343,5.28705 6.86249,10.4329 10.89722,14.83461 2.73805,2.98708 6.52976,5.24077 7.46773,8.88859 1.58468,2.61942 -0.79643,6.88025 -2.32872,9.28823 -3.51247,5.51983 -10.31441,8.31018 -11.2016,15.58548 -0.55753,4.57194 4.40177,12.98261 5.8849,17.43219 0.66583,1.99758 0.40948,4.24164 0.77112,6.29101 0.24826,1.40685 1.4788,2.49668 1.66401,3.91666 0.26109,2.00176 1.01089,3.76787 1.44078,5.7025 0.5694,2.56236 -1.57262,6.74264 -0.62907,8.15802 48.57157,22.90029 50.74975,-196.329667 4.61073,-170.049055 -2.24031,1.433856 -2.64679,11.474232 -4.92007,12.637942 z"
           style="color:#000000;fill:#ceffff;fill-opacity:1;fill-rule:nonzero;stroke:none;stroke-width:1.5;marker:none;visibility:visible;display:inline;overflow:visible;filter:url(#filter3958);enable-background:accumulate" />
        <path
           sodipodi:nodetypes="ccccscssssssssscc"
           transform="translate(7.29704,299.91861)"
           inkscape:connector-curvature="0"
           id="path3917"
           d="m 319.68736,94.445709 c -12.67175,8.128281 -25.8575,28.270491 -21.24651,36.244341 3.76888,5.96764 12.17654,21.11266 13.0583,28.75493 -6.07921,19.13729 -5.68418,26.7982 0.49726,40.42022 0,6.37742 -2.89558,1.65883 -8.52296,0.53331 -0.87058,-0.17412 -1.374,0.20589 -2.15103,-0.18264 -4.3709,-2.6188 -5.51841,-7.28965 -7.88371,-11.40545 -1.62909,-2.83472 -4.12782,-5.0887 -5.56022,-8.03625 -1.14969,-2.36582 -1.56731,-4.93714 -2.41484,-7.40716 -0.82001,-2.38986 -2.3876,-4.47034 -3.12508,-6.87953 -2.89589,-9.46027 -4.95894,-22.53667 -5.76314,-32.38856 -0.5765,-7.06237 -1.74059,-21.90014 2.92215,-27.59927 2.24911,-2.74902 5.61924,-5.25514 8.78677,-6.798354 3.92719,-1.913326 20.78863,-6.149505 25.42682,-6.73747 0.89197,-0.113071 7.00101,-2.325584 7.00101,0.142056 0,0.129256 -0.53608,-0.252528 -0.58849,-0.182643 -0.31675,0.422342 -0.27129,1.02101 -0.43633,1.52247 z"
           style="color:#000000;fill:#ceffff;fill-opacity:1;fill-rule:nonzero;stroke:none;stroke-width:1.5;marker:none;visibility:visible;display:inline;overflow:visible;filter:url(#filter3946);enable-background:accumulate" />
      </g>
      <path
         style="color:#000000;fill:none;stroke:#abd8e8;stroke-width:1;stroke-opacity:1;marker:none;visibility:visible;display:inline;overflow:visible;enable-background:accumulate"
         d="m 323.86703,360.54361 c -3.1861,0.0568 -6.59464,0.4401 -10.21875,1.1875 -5.85855,1.96431 -9.20611,5.45097 -10.34375,8.28125 -0.0786,0.6094 -0.17373,1.22134 -0.1875,1.8125 -8.61043,0.34113 -17.60935,-2.91011 -22.53125,-9.125 -0.004,1.97992 1.77882,2.92888 1.84375,4.59375 -0.50642,0.37983 -4.24122,-2.00879 -4.46875,-1.78125 5.97454,6.46018 19.53287,9.64992 27.21875,9.15625 0.009,0.003 0.0226,-0.003 0.0312,0 0.56029,0.20963 1.2492,0.40803 2.125,0.53125 2.61528,1.91773 5.74092,0.51659 11.17778,2.28437 7.58603,2.46657 11.49724,-1.53849 15.1875,-2.62604 9.82155,-1.2516 16.48767,15.87026 0.38477,21.96667 -20.90047,7.9127 -26.65408,12.33669 -33.40625,19.625 -4.93122,5.32276 -6.21272,15.19129 1.21875,22.4375 8.41859,8.20873 18.98688,10.95781 27.625,13.90625 5.08472,1.73556 7.87933,5.19732 0.34375,9.78125 l -12.75,7.75 c -11.67156,7.09986 -9.74867,16.18143 -2.15625,22.0625 l 14.03125,10.875 c 2.64149,2.04609 8.55057,9.86111 7.28125,13.03125 2.27019,-4.0984 10.58776,-12.45644 -7.96551,-24.81763 -5.56406,-3.70707 -18.32535,-11.21252 5.77801,-22.18237 2.39504,-1.09002 34.79094,-11.29609 -7.8125,-32.15625 -13.45456,-6.58783 -22.73856,-14.17071 4.03125,-23.65625 8.63675,-3.06032 15.28778,-6.75609 22.26214,-12.68151 5.57682,-4.73807 11.08297,-23.06909 -4.73089,-33.34974 -6.69253,-4.35083 -14.41045,-7.07677 -23.96875,-6.90625 z m -5.75,4.6875 c 1.25568,-0.0301 2.50518,0.38393 2.90625,1.25 -1.40848,1.57122 -4.55937,0.99302 -5.90625,0.125 0.47443,-0.88945 1.74432,-1.34487 3,-1.375 z"
         id="path3962"
         inkscape:connector-curvature="0"
         sodipodi:nodetypes="scccccccccscsssscccccssssssssccs" />
      <path
         inkscape:connector-curvature="0"
         id="path3006"
         d="m 318.39828,387.26236 1.15625,42.5 13.78125,1.3125 1.46875,-43.8125 -16.40625,0 z m 1.96875,71.84375 0.65625,24.25 10.53125,-0.28125 0.8125,-23.71875 -12,-0.25 z"
         style="color:#000000;fill:#eaffff;fill-opacity:1;fill-rule:nonzero;stroke:none;stroke-width:1.5;marker:none;visibility:visible;display:inline;overflow:visible;enable-background:accumulate" />
      <path
         sodipodi:nodetypes="cccccccc"
         inkscape:connector-curvature="0"
         style="color:#000000;fill:none;stroke:#abd8e8;stroke-width:1;stroke-linecap:square;stroke-linejoin:round;stroke-miterlimit:4;stroke-opacity:1;stroke-dasharray:none;stroke-dashoffset:0;marker:none;visibility:visible;display:inline;overflow:visible;enable-background:accumulate"
         d="m 318.39828,387.26236 1.15625,42.5 m 13.78125,1.3125 1.46875,-43.8125 m -14.4375,71.84375 0.65625,24.25 m 10.53125,-0.28125 0.8125,-23.71875"
         id="path3018" />
      <g
         id="text3812"
         style="font-size:20px;font-style:normal;font-variant:normal;font-weight:normal;font-stretch:normal;text-align:center;text-anchor:middle;color:#000000;fill:#eaffff;fill-opacity:1;stroke:none;stroke-width:1.5;marker:none;visibility:visible;display:inline;overflow:visible;enable-background:accumulate;font-family:Arial;-inkscape-font-specification:Arial">
        <path
           id="path3831"
           style="font-size:20px;marker:none"
           d="m 230.67142,409.84256 -13.93814,-3.2692 0.65116,-2.77622 10.64271,-0.98438 c 0.99043,-0.0887 1.73018,-0.1492 2.21925,-0.18162 -0.46991,-0.27738 -1.15669,-0.69926 -2.06035,-1.26564 l -8.91502,-5.61179 0.58204,-2.48148 13.93814,3.2692 -0.41701,1.77792 -11.66583,-2.73622 10.71584,6.78646 -0.39025,1.66383 -12.81101,1.24817 11.86548,2.78305 z"
           inkscape:connector-curvature="0" />
        <path
           id="path3833"
           style="font-size:20px;marker:none"
           d="m 235.07735,393.37096 -13.47678,-4.83073 0.63926,-1.78342 13.47678,4.83073 z"
           inkscape:connector-curvature="0" />
        <path
           id="path3835"
           style="font-size:20px;marker:none"
           d="m 236.77113,388.43566 -12.91326,-6.1812 0.83906,-1.7529 13.38519,-1.92949 -10.13859,-4.85305 0.78425,-1.63838 12.91326,6.1812 -0.83906,1.75289 -13.394,1.92529 10.14739,4.85726 z"
           inkscape:connector-curvature="0" />
        <path
           id="path3837"
           style="font-size:20px;marker:none"
           d="m 243.52993,375.28232 -12.21738,-7.46291 0.98759,-1.61676 12.21738,7.46291 z"
           inkscape:connector-curvature="0" />
        <path
           id="path3839"
           style="font-size:20px;marker:none"
           d="m 242.16059,368.54874 0.94839,-1.52274 c 0.62343,0.36245 1.2115,0.55787 1.76421,0.58626 0.55272,0.0284 1.13779,-0.13262 1.75524,-0.48308 0.61745,-0.35045 1.17055,-0.85102 1.65931,-1.5017 0.43402,-0.5778 0.73132,-1.15245 0.8919,-1.72395 0.16057,-0.57149 0.17234,-1.07767 0.0353,-1.51853 -0.13705,-0.44085 -0.38256,-0.79422 -0.73652,-1.06012 -0.35918,-0.26978 -0.75101,-0.40126 -1.1755,-0.39442 -0.42448,0.007 -0.90768,0.18131 -1.4496,0.52335 -0.35042,0.2172 -1.04678,0.75672 -2.08909,1.61857 -1.0423,0.86187 -1.83372,1.41956 -2.37428,1.67306 -0.69685,0.33152 -1.35809,0.47198 -1.98371,0.42139 -0.6256,-0.0506 -1.20129,-0.27334 -1.72704,-0.66827 -0.5778,-0.43401 -0.9947,-1.00366 -1.2507,-1.70893 -0.25598,-0.70526 -0.27755,-1.47057 -0.0647,-2.29595 0.21286,-0.82535 0.60863,-1.62323 1.18731,-2.39365 0.63736,-0.84848 1.33607,-1.49412 2.09616,-1.93694 0.7601,-0.44278 1.53661,-0.63915 2.32954,-0.5891 0.79293,0.0501 1.53492,0.3143 2.22597,0.79266 l -0.9816,1.53443 c -0.7822,-0.4654 -1.52721,-0.61179 -2.23502,-0.43915 -0.70781,0.17267 -1.39212,0.69886 -2.05293,1.57857 -0.68817,0.91617 -1.02176,1.70987 -1.00078,2.3811 0.021,0.67125 0.26834,1.18477 0.74203,1.54058 0.41124,0.30891 0.86103,0.41471 1.34938,0.31741 0.48444,-0.0921 1.32828,-0.64908 2.5315,-1.67099 1.20323,-1.02189 2.081,-1.68367 2.6333,-1.98536 0.80762,-0.43559 1.56623,-0.63523 2.27584,-0.59891 0.7096,0.0363 1.37153,0.2852 1.98578,0.74658 0.60903,0.45749 1.05194,1.06296 1.32873,1.81641 0.27679,0.75347 0.31948,1.56926 0.12808,2.44736 -0.19141,0.87812 -0.59405,1.72581 -1.20793,2.54306 -0.77811,1.03589 -1.58108,1.7905 -2.4089,2.26385 -0.82782,0.47335 -1.69451,0.68137 -2.60007,0.62406 -0.90555,-0.0573 -1.74875,-0.36294 -2.52959,-0.91691 z"
           inkscape:connector-curvature="0" />
        <path
           id="path3841"
           style="font-size:20px;marker:none"
           d="m 256.98527,357.64889 -9.03319,-8.82277 -3.29575,3.37435 -1.20862,-1.18046 7.9289,-8.118 1.20862,1.18046 -3.3094,3.38832 9.0332,8.82277 z"
           inkscape:connector-curvature="0" />
        <path
           id="path3843"
           style="font-size:20px;marker:none"
           d="m 263.10962,351.5752 -8.80379,-11.2895 5.00557,-3.90345 c 1.00625,-0.78468 1.85028,-1.27981 2.53207,-1.4854 0.6818,-0.20556 1.37947,-0.17375 2.09299,0.0954 0.71352,0.2692 1.3125,0.71439 1.79693,1.33557 0.62455,0.80091 0.89175,1.6782 0.80161,2.63187 -0.0902,0.9537 -0.6188,1.92736 -1.58595,2.92098 0.54344,-0.1183 0.9899,-0.16512 1.33939,-0.14046 0.74865,0.0602 1.55228,0.23843 2.41088,0.53482 l 4.35984,1.5413 -1.87901,1.46529 -3.32559,-1.18373 c -0.96486,-0.33737 -1.72859,-0.57565 -2.2912,-0.71484 -0.56262,-0.13917 -1.01164,-0.19355 -1.34706,-0.16316 -0.33543,0.0304 -0.64067,0.10746 -0.91574,0.23114 -0.19744,0.0962 -0.48869,0.29441 -0.87373,0.59466 l -1.7327,1.3512 3.90946,5.01328 z m -3.42438,-7.47206 3.21127,-2.50421 c 0.68281,-0.53246 1.16169,-1.01942 1.43664,-1.46089 0.27494,-0.44143 0.39142,-0.89553 0.34943,-1.36228 -0.042,-0.46673 -0.20512,-0.88235 -0.48937,-1.24687 -0.41637,-0.53391 -0.95248,-0.82173 -1.60832,-0.86345 -0.65585,-0.0417 -1.40219,0.26375 -2.23902,0.91631 l -3.57321,2.78646 z"
           inkscape:connector-curvature="0" />
        <path
           id="path3845"
           style="font-size:20px;marker:none"
           d="m 274.9828,342.84131 -7.61613,-12.12246 1.6042,-1.00787 7.61613,12.12246 z"
           inkscape:connector-curvature="0" />
        <path
           id="path3847"
           style="font-size:20px;marker:none"
           d="m 277.98797,340.72803 -1.5005,-15.26225 1.82461,-0.91464 11.65368,10.17268 -1.92936,0.96715 -3.43592,-3.12786 -5.35159,2.68264 0.53749,4.58078 z m 1.05836,-7.10671 4.33889,-2.175 -3.11247,-2.87488 c -0.94715,-0.87248 -1.69325,-1.60543 -2.23832,-2.19884 0.24841,0.90234 0.42696,1.83239 0.53567,2.79017 z"
           inkscape:connector-curvature="0" />
        <path
           id="path3849"
           style="font-size:20px;marker:none"
           d="m 296.68697,332.2958 -3.83571,-13.793 9.97311,-2.77343 0.45265,1.62769 -8.14784,2.26584 1.17478,4.22446 7.63037,-2.12194 0.45003,1.61828 -7.63037,2.12194 1.30561,4.69488 8.46773,-2.3548 0.45264,1.62769 z"
           inkscape:connector-curvature="0" />
        <path
           id="path3851"
           style="font-size:20px;marker:none"
           d="m 314.06348,323.51871 1.76931,-0.29617 c 0.14063,0.70729 0.38312,1.27756 0.72747,1.71083 0.34435,0.43327 0.85216,0.7655 1.52344,0.99667 0.67128,0.23119 1.41256,0.31481 2.22385,0.25087 0.72042,-0.0568 1.34803,-0.21398 1.88283,-0.47164 0.53479,-0.25765 0.92215,-0.58369 1.1621,-0.97811 0.23993,-0.39442 0.34251,-0.81229 0.30774,-1.25364 -0.0353,-0.44782 -0.19593,-0.82863 -0.48187,-1.14243 -0.28596,-0.31379 -0.73644,-0.56073 -1.35144,-0.74084 -0.3947,-0.1191 -1.25997,-0.28438 -2.59581,-0.49584 -1.33585,-0.21146 -2.27763,-0.43601 -2.82533,-0.67368 -0.70961,-0.30325 -1.25239,-0.70619 -1.62832,-1.20881 -0.37594,-0.50261 -0.58974,-1.08168 -0.64139,-1.73721 -0.0568,-0.72041 0.0946,-1.40989 0.45413,-2.06844 0.35953,-0.65852 0.91917,-1.18099 1.67893,-1.56741 0.75974,-0.38639 1.6199,-0.61744 2.58047,-0.69315 1.05791,-0.0834 2.00431,0.0135 2.83922,0.29053 0.83488,0.27708 1.49584,0.72948 1.98287,1.35721 0.48701,0.62775 0.77973,1.35897 0.87818,2.19365 l -1.80005,0.27899 c -0.16846,-0.89446 -0.55155,-1.54999 -1.14927,-1.96657 -0.59773,-0.41655 -1.44502,-0.58162 -2.54187,-0.49519 -1.1423,0.09 -1.95818,0.36494 -2.44766,0.82473 -0.48948,0.45981 -0.71095,0.98501 -0.6644,1.57562 0.0404,0.51274 0.25862,0.92004 0.65466,1.22188 0.38954,0.30237 1.36547,0.56668 2.92779,0.79294 1.56231,0.22627 2.63927,0.44671 3.23088,0.6613 0.86093,0.31747 1.51249,0.75428 1.9547,1.31045 0.44219,0.55617 0.69346,1.21719 0.75383,1.98303 0.0598,0.75937 -0.10121,1.49206 -0.48311,2.19807 -0.38192,0.70602 -0.96544,1.27772 -1.75055,1.7151 -0.78513,0.43738 -1.68718,0.69622 -2.70614,0.77652 -1.29158,0.10179 -2.38867,-0.001 -3.29127,-0.30878 -0.90261,-0.30765 -1.63197,-0.81996 -2.18806,-1.53696 -0.55609,-0.71698 -0.88472,-1.55149 -0.98586,-2.50352 z"
           inkscape:connector-curvature="0" />
        <path
           id="path3853"
           style="font-size:20px;marker:none"
           d="m 328.46877,327.1849 0.87208,-14.28982 1.89101,0.11541 -0.35811,5.86798 7.42759,0.4533 0.35811,-5.86799 1.89101,0.1154 -0.87208,14.28982 -1.89101,-0.1154 0.41105,-6.73552 -7.42758,-0.45329 -0.41106,6.73552 z"
           inkscape:connector-curvature="0" />
        <path
           id="path3855"
           style="font-size:20px;marker:none"
           d="m 342.86444,328.32281 2.87372,-14.02502 10.14087,2.07786 -0.33912,1.65507 -8.2849,-1.69758 -0.88015,4.29552 7.75872,1.58976 -0.33716,1.6455 -7.75873,-1.58976 -0.97816,4.77387 8.61018,1.76422 -0.33912,1.65507 z m 5.57015,-14.38963 0.40185,-1.96121 1.79857,0.36853 -0.40185,1.96121 z m 3.56844,0.73117 0.40185,-1.9612 1.79857,0.36852 -0.40185,1.96121 z"
           inkscape:connector-curvature="0" />
        <path
           id="path3857"
           style="font-size:20px;marker:none"
           d="m 355.8695,331.16971 4.83441,-13.47545 1.82921,0.65624 3.28219,13.1192 3.79564,-10.57998 1.70971,0.61337 -4.83442,13.47546 -1.8292,-0.65624 -3.27889,-13.1284 -3.79894,10.58917 z"
           inkscape:connector-curvature="0" />
        <path
           id="path3859"
           style="font-size:20px;marker:none"
           d="m 369.42299,336.27681 6.76479,-12.61733 4.34635,2.3303 c 0.98115,0.52606 1.69762,0.98776 2.14943,1.38511 0.63373,0.55402 1.08904,1.18595 1.36591,1.89581 0.36409,0.91915 0.47653,1.90468 0.33733,2.95657 -0.13923,1.0519 -0.51031,2.14014 -1.11325,3.26474 -0.51376,0.95821 -1.08094,1.74741 -1.70154,2.36761 -0.62063,0.62019 -1.23591,1.07888 -1.84585,1.37607 -0.60996,0.29718 -1.19753,0.4734 -1.76271,0.52865 -0.5652,0.0553 -1.1803,-0.003 -1.84532,-0.17494 -0.66504,-0.17188 -1.37911,-0.46239 -2.14223,-0.87154 z m 2.46799,-0.59374 2.69388,1.44432 c 0.83196,0.44607 1.52616,0.71854 2.0826,0.81741 0.55641,0.0989 1.05057,0.0831 1.48247,-0.0473 0.60816,-0.18364 1.20189,-0.55047 1.78119,-1.10048 0.57928,-0.55001 1.12426,-1.30125 1.63494,-2.25372 0.70754,-1.31968 1.03467,-2.44996 0.98141,-3.39084 -0.0533,-0.94086 -0.32516,-1.69791 -0.81562,-2.27115 -0.35527,-0.41207 -1.02922,-0.88422 -2.02184,-1.41642 l -2.65084,-1.42126 z"
           inkscape:connector-curvature="0" />
        <path
           id="path3861"
           style="font-size:20px;marker:none"
           d="m 382.0743,343.35981 8.4742,-11.53896 8.34331,6.12732 -1.00002,1.36169 -6.81633,-5.0059 -2.59544,3.5341 6.38342,4.68798 -0.99425,1.35382 -6.38341,-4.68798 -2.88447,3.92765 7.08394,5.20244 -1.00002,1.36169 z"
           inkscape:connector-curvature="0" />
        <path
           id="path3863"
           style="font-size:20px;marker:none"
           d="m 395.30507,353.95417 8.72498,-9.12768 -3.40965,-3.25922 1.16738,-1.22126 8.20292,7.84101 -1.16738,1.22126 -3.42376,-3.27271 -8.72498,9.12769 z"
           inkscape:connector-curvature="0" />
        <path
           id="path3865"
           style="font-size:20px;marker:none"
           d="m 401.42718,360.03908 11.14427,-8.98692 6.49805,8.05794 -1.31512,1.06053 -5.30878,-6.58318 -3.41322,2.75247 4.97162,6.16508 -1.30751,1.0544 -4.97162,-6.16508 -3.79331,3.05899 5.51721,6.84164 -1.31512,1.06053 z m 13.45589,-7.55162 1.55837,-1.2567 1.15249,1.42915 -1.55838,1.25669 z m 2.28658,2.83548 1.55837,-1.2567 1.15248,1.42915 -1.55837,1.25669 z"
           inkscape:connector-curvature="0" />
        <path
           id="path3867"
           style="font-size:20px;marker:none"
           d="m 413.23486,367.61483 1.05743,1.44914 c -0.56934,0.4426 -0.97055,0.91487 -1.20364,1.41684 -0.2331,0.50196 -0.30262,1.1048 -0.20857,1.80851 0.094,0.70371 0.35136,1.40391 0.77198,2.10059 0.3735,0.61865 0.79522,1.10932 1.26516,1.47203 0.46994,0.36269 0.93496,0.56295 1.39508,0.60077 0.46011,0.0378 0.87966,-0.0577 1.25866,-0.2865 0.38456,-0.23218 0.65306,-0.54638 0.80551,-0.94261 0.15242,-0.39623 0.17139,-0.90961 0.0569,-1.54013 -0.0704,-0.40623 -0.31022,-1.25385 -0.71961,-2.54288 -0.4094,-1.28903 -0.63055,-2.23161 -0.66344,-2.82775 -0.0468,-0.77027 0.0703,-1.43605 0.35125,-1.99732 0.28093,-0.56127 0.70286,-1.01183 1.26579,-1.35168 0.61863,-0.3735 1.30287,-0.54705 2.05271,-0.52064 0.74981,0.0264 1.46763,0.2927 2.15346,0.79883 0.68581,0.50614 1.27773,1.17165 1.77575,1.99651 0.54846,0.90847 0.88586,1.79797 1.0122,2.66852 0.12631,0.87055 0.018,1.66414 -0.32508,2.38078 -0.34305,0.71664 -0.86565,1.30592 -1.56778,1.76787 l -1.05585,-1.48433 c 0.72422,-0.55132 1.13866,-1.18748 1.24333,-1.90849 0.10463,-0.72101 -0.12738,-1.55247 -0.69603,-2.49437 -0.59223,-0.98093 -1.20352,-1.5872 -1.83387,-1.81883 -0.63037,-0.23162 -1.19914,-0.19433 -1.70631,0.11187 -0.44031,0.26583 -0.70668,0.64339 -0.79912,1.13269 -0.0958,0.48372 0.10508,1.47465 0.60271,2.97278 0.49761,1.49813 0.78301,2.55973 0.85619,3.18479 0.10186,0.91192 0.003,1.69014 -0.29589,2.33464 -0.29915,0.6445 -0.77755,1.16528 -1.4352,1.56234 -0.6521,0.39368 -1.37929,0.57795 -2.18158,0.55281 -0.80231,-0.0252 -1.57484,-0.29073 -2.3176,-0.7967 -0.74277,-0.506 -1.37829,-1.1965 -1.90658,-2.07152 -0.66961,-1.10912 -1.06908,-2.13606 -1.1984,-3.08085 -0.12932,-0.94479 0.002,-1.82637 0.39386,-2.64475 0.39189,-0.81837 0.99075,-1.48603 1.79658,-2.00296 z"
           inkscape:connector-curvature="0" />
        <path
           id="path3869"
           style="font-size:20px;marker:none"
           d="m 416.38222,382.43723 12.9106,-6.18675 0.81871,1.70849 -12.9106,6.18676 z"
           inkscape:connector-curvature="0" />
        <path
           id="path3871"
           style="font-size:20px;marker:none"
           d="m 422.77908,384.95684 0.75986,1.62505 c -0.64366,0.32518 -1.12801,0.71173 -1.45304,1.15967 -0.32505,0.44794 -0.5089,1.02625 -0.55157,1.73494 -0.0427,0.70868 0.0756,1.44523 0.35477,2.20965 0.24791,0.6788 0.56769,1.24125 0.95934,1.68735 0.39164,0.44609 0.80963,0.73182 1.25395,0.8572 0.44432,0.12535 0.8744,0.11209 1.29025,-0.0398 0.42195,-0.15412 0.74573,-0.41099 0.97133,-0.77062 0.2256,-0.35964 0.34268,-0.85985 0.35124,-1.50063 0.009,-0.41217 -0.064,-1.29007 -0.21853,-2.63368 -0.15457,-1.34362 -0.19083,-2.31112 -0.10877,-2.9025 0.10182,-0.76495 0.34442,-1.39591 0.72781,-1.89287 0.38337,-0.49697 0.88388,-0.85824 1.50154,-1.08382 0.67879,-0.24791 1.3836,-0.287 2.11445,-0.11727 0.73083,0.16974 1.38425,0.56875 1.96028,1.19703 0.576,0.62828 1.02928,1.39496 1.35985,2.30003 0.36403,0.99679 0.52457,1.9345 0.48159,2.81312 -0.043,0.8786 -0.30156,1.63668 -0.77566,2.27423 -0.47414,0.63753 -1.10006,1.11564 -1.87775,1.43434 l -0.75156,-1.65927 c 0.81652,-0.40219 1.34528,-0.94705 1.58629,-1.6346 0.24098,-0.68755 0.17275,-1.54807 -0.20469,-2.58156 -0.3931,-1.0763 -0.87676,-1.78856 -1.45098,-2.13678 -0.57425,-0.34823 -1.13961,-0.42072 -1.69609,-0.21747 -0.48312,0.17644 -0.81697,0.4959 -1.00153,0.95838 -0.18682,0.45636 -0.1797,1.46743 0.0213,3.03319 0.20103,1.56576 0.27752,2.66239 0.22946,3.28988 -0.0749,0.91453 -0.32099,1.65938 -0.73817,2.23455 -0.41721,0.57515 -0.98661,0.9945 -1.70821,1.25806 -0.7155,0.26131 -1.46454,0.30268 -2.24711,0.12413 -0.78258,-0.17858 -1.48983,-0.58738 -2.12176,-1.22642 -0.63193,-0.63906 -1.12322,-1.43864 -1.47387,-2.39874 -0.44446,-1.21695 -0.63955,-2.30145 -0.58526,-3.2535 0.0543,-0.95205 0.35222,-1.79209 0.8938,-2.52011 0.54158,-0.72802 1.25737,-1.26842 2.14739,-1.62119 z"
           inkscape:connector-curvature="0" />
        <path
           id="path3873"
           style="font-size:20px;marker:none"
           d="m 423.07393,399.80579 13.99168,-3.03189 2.19223,10.11676 -1.65113,0.35779 -1.79101,-8.26521 -4.28531,0.9286 1.67726,7.74028 -1.64159,0.35572 -1.67726,-7.74028 -4.76252,1.032 1.86133,8.58971 -1.65113,0.35779 z m 15.41366,-0.71206 1.95654,-0.42397 0.38882,1.7943 -1.95655,0.42396 z m 0.77142,3.55996 1.95654,-0.42397 0.38881,1.79429 -1.95654,0.42397 z"
           inkscape:connector-curvature="0" />
      </g>
      <g
         transform="matrix(1.9898033,0,0,1.9898033,-213.5784,-427.64959)"
         id="text3819"
         style="font-size:20px;font-style:normal;font-variant:normal;font-weight:normal;font-stretch:normal;text-align:center;text-anchor:middle;color:#000000;fill:#eaffff;fill-opacity:1;fill-rule:nonzero;stroke:none;stroke-width:1.5;marker:none;visibility:visible;display:inline;overflow:visible;enable-background:accumulate;font-family:Arial;-inkscape-font-specification:Arial">
        <path
           inkscape:connector-curvature="0"
           id="path3824"
           style="marker:none"
           d="m 214.51785,428.4122 0.44922,-1.38672 c 1.03516,0.3646 1.78711,0.68035 2.25586,0.94727 -0.1237,-1.17837 -0.1888,-1.98892 -0.19531,-2.43164 l 1.41601,0 c -0.0195,0.64454 -0.0944,1.45183 -0.22461,2.42187 0.67057,-0.33853 1.4388,-0.65103 2.30469,-0.9375 l 0.44922,1.38672 c -0.82683,0.27345 -1.63737,0.45574 -2.43164,0.54688 0.39713,0.34506 0.95703,0.96029 1.67969,1.8457 l -1.17188,0.83008 c -0.37761,-0.51432 -0.82357,-1.21419 -1.33789,-2.09961 -0.48177,0.91798 -0.90495,1.61785 -1.26953,2.09961 l -1.15234,-0.83008 c 0.7552,-0.93098 1.29557,-1.54621 1.62109,-1.8457 -0.83985,-0.16275 -1.63737,-0.34504 -2.39258,-0.54688 z" />
      </g>
      <g
         style="font-size:20px;font-style:normal;font-variant:normal;font-weight:normal;font-stretch:normal;text-align:center;text-anchor:middle;color:#000000;fill:#eaffff;fill-opacity:1;fill-rule:nonzero;stroke:none;stroke-width:1.5;marker:none;visibility:visible;display:inline;overflow:visible;enable-background:accumulate;font-family:Arial;-inkscape-font-specification:Arial"
         id="g3826"
         transform="matrix(1.9898033,0,0,1.9898033,2.7277564,-427.64959)">
        <path
           d="m 214.51785,428.4122 0.44922,-1.38672 c 1.03516,0.3646 1.78711,0.68035 2.25586,0.94727 -0.1237,-1.17837 -0.1888,-1.98892 -0.19531,-2.43164 l 1.41601,0 c -0.0195,0.64454 -0.0944,1.45183 -0.22461,2.42187 0.67057,-0.33853 1.4388,-0.65103 2.30469,-0.9375 l 0.44922,1.38672 c -0.82683,0.27345 -1.63737,0.45574 -2.43164,0.54688 0.39713,0.34506 0.95703,0.96029 1.67969,1.8457 l -1.17188,0.83008 c -0.37761,-0.51432 -0.82357,-1.21419 -1.33789,-2.09961 -0.48177,0.91798 -0.90495,1.61785 -1.26953,2.09961 l -1.15234,-0.83008 c 0.7552,-0.93098 1.29557,-1.54621 1.62109,-1.8457 -0.83985,-0.16275 -1.63737,-0.34504 -2.39258,-0.54688 z"
           style="marker:none"
           id="path3828"
           inkscape:connector-curvature="0" />
      </g>
      <g
         style="font-size:20px;font-style:normal;font-variant:normal;font-weight:normal;font-stretch:normal;text-align:center;text-anchor:middle;color:#000000;fill:#eaffff;fill-opacity:1;stroke:none;stroke-width:1.5;marker:none;visibility:visible;display:inline;overflow:visible;enable-background:accumulate;font-family:Arial;-inkscape-font-specification:Arial"
         id="text3037">
        <path
           d="m 248.9653,502.72655 1.41821,1.09856 c -0.42406,0.58327 -0.67837,1.14838 -0.76292,1.69532 -0.0846,0.54695 0.016,1.14539 0.30177,1.79532 0.28574,0.64993 0.72736,1.25115 1.32488,1.80365 0.53058,0.49061 1.07196,0.8449 1.62413,1.06286 0.55216,0.21796 1.0545,0.28122 1.50704,0.1898 0.45251,-0.0914 0.82905,-0.29966 1.12962,-0.6247 0.30497,-0.32983 0.47567,-0.70623 0.51211,-1.1292 0.0364,-0.42298 -0.0879,-0.92144 -0.37296,-1.49538 -0.18038,-0.37072 -0.64616,-1.11842 -1.39736,-2.24309 -0.75122,-1.12467 -1.22538,-1.96879 -1.4225,-2.53235 -0.25882,-0.727 -0.33119,-1.39911 -0.21713,-2.01632 0.11405,-0.6172 0.39428,-1.1672 0.84071,-1.64999 0.49061,-0.53058 1.09976,-0.88729 1.82744,-1.07011 0.72767,-0.18281 1.4912,-0.12631 2.2906,0.16949 0.79937,0.29583 1.55279,0.77081 2.26026,1.42497 0.77914,0.72046 1.35025,1.48131 1.71334,2.28255 0.36305,0.80125 0.4793,1.59372 0.34874,2.37743 -0.13059,0.78371 -0.46902,1.49492 -1.01528,2.13365 l -1.42646,-1.13279 c 0.54266,-0.73073 0.76417,-1.45695 0.66453,-2.17867 -0.0997,-0.72171 -0.55342,-1.45606 -1.36124,-2.20304 -0.8413,-0.77792 -1.59689,-1.19062 -2.26677,-1.23812 -0.66989,-0.0475 -1.20595,0.14626 -1.60816,0.58124 -0.34919,0.37763 -0.50025,0.8143 -0.4532,1.31002 0.0423,0.49131 0.5104,1.38749 1.40443,2.68855 0.89401,1.30107 1.46294,2.24168 1.7068,2.82184 0.35106,0.84778 0.47238,1.62278 0.36397,2.325 -0.10844,0.70222 -0.42343,1.33535 -0.94498,1.8994 -0.51715,0.55927 -1.16459,0.9382 -1.94231,1.1368 -0.77774,0.1986 -1.59363,0.15797 -2.44768,-0.12188 -0.85405,-0.27986 -1.65631,-0.76676 -2.40678,-1.46069 -0.95124,-0.87958 -1.62014,-1.75524 -2.0067,-2.62697 -0.38656,-0.87173 -0.50521,-1.7551 -0.35596,-2.65011 0.14925,-0.89501 0.53919,-1.70269 1.16981,-2.42304 z"
           style="font-size:20px;marker:none"
           id="path3045" />
        <path
           d="m 256.09536,515.31329 8.55138,-11.48187 1.40978,1.04996 -3.06823,4.11969 c 1.22564,-0.27233 2.33973,-0.0352 3.34225,0.71145 0.61611,0.45888 1.06089,0.97887 1.33434,1.55999 0.27342,0.58112 0.3486,1.15867 0.22554,1.73265 -0.12309,0.57398 -0.48795,1.26824 -1.09458,2.08278 l -3.9257,5.27101 -1.40978,-1.04996 3.9257,-5.27101 c 0.52497,-0.70489 0.75431,-1.33164 0.68803,-1.88025 -0.0663,-0.54861 -0.3788,-1.03096 -0.93748,-1.44706 -0.41772,-0.31109 -0.89132,-0.49538 -1.42081,-0.55285 -0.5295,-0.0575 -1.01061,0.0408 -1.44335,0.29488 -0.43275,0.25406 -0.89217,0.70743 -1.37826,1.3601 l -3.38905,4.55046 z"
           style="font-size:20px;marker:none"
           id="path3047" />
        <path
           d="m 272.90592,522.67416 1.43868,1.13136 c -0.79386,0.76026 -1.67383,1.19089 -2.63992,1.2919 -0.9661,0.101 -1.96463,-0.15984 -2.9956,-0.78254 -1.29846,-0.78426 -2.08653,-1.80597 -2.3642,-3.06511 -0.27767,-1.25915 0.0194,-2.61039 0.89116,-4.05375 0.90207,-1.4935 1.9867,-2.42039 3.25391,-2.78067 1.2672,-0.36027 2.51381,-0.17015 3.73983,0.57035 1.18699,0.71695 1.91263,1.70665 2.1769,2.9691 0.26426,1.26246 -0.0462,2.62651 -0.93146,4.09215 -0.0539,0.0892 -0.13744,0.22123 -0.25071,0.39619 l -6.62047,-3.99873 c -0.53332,1.0089 -0.7085,1.92226 -0.52555,2.7401 0.18294,0.81784 0.64501,1.45059 1.38619,1.89826 0.5517,0.33323 1.11012,0.47276 1.67525,0.41859 0.56511,-0.0542 1.15378,-0.3299 1.76599,-0.8272 z m -3.47105,-5.41642 4.957,2.994 c 0.38415,-0.78715 0.53295,-1.46165 0.4464,-2.02352 -0.12921,-0.86904 -0.57555,-1.53413 -1.33901,-1.99527 -0.69104,-0.41737 -1.41168,-0.53699 -2.16195,-0.35888 -0.75028,0.17813 -1.38443,0.63935 -1.90244,1.38367 z m 3.33318,-5.25412 1.03503,-1.71363 1.57152,0.94919 -1.03502,1.71363 z m 3.11798,1.88324 1.03502,-1.71363 1.57153,0.94919 -1.03503,1.71364 z"
           style="font-size:20px;marker:none"
           id="path3049" />
        <path
           d="m 274.69984,527.51016 4.47512,-9.35591 1.42717,0.68265 -0.63629,1.33027 c 1.17876,-0.69911 2.41713,-0.73825 3.7151,-0.11742 0.56381,0.2697 1.03366,0.61892 1.40954,1.04768 0.37585,0.42878 0.60259,0.86379 0.68021,1.30505 0.0776,0.44127 0.0552,0.91049 -0.0671,1.40767 -0.0817,0.32175 -0.29819,0.8497 -0.64933,1.58383 l -2.75165,5.75274 -1.58575,-0.7585 2.72216,-5.69106 c 0.309,-0.64604 0.4784,-1.15861 0.50817,-1.53769 0.0298,-0.37907 -0.0668,-0.7392 -0.28971,-1.08038 -0.22292,-0.34116 -0.54581,-0.61288 -0.96867,-0.81515 -0.67542,-0.32306 -1.36086,-0.38751 -2.05634,-0.19334 -0.69548,0.19417 -1.32977,0.89031 -1.90285,2.08843 l -2.44404,5.10962 z"
           style="font-size:20px;marker:none"
           id="path3051" />
        <path
           d="m 291.12448,534.49751 0.44698,-1.22989 c -0.96937,0.74218 -2.0537,0.89533 -3.25299,0.45947 -0.77709,-0.28242 -1.41363,-0.75621 -1.90962,-1.42136 -0.496,-0.66516 -0.78342,-1.44674 -0.86229,-2.34474 -0.0789,-0.89801 0.0629,-1.8457 0.42542,-2.84307 0.35358,-0.97289 0.83651,-1.7966 1.4488,-2.47114 0.61227,-0.67452 1.31943,-1.10502 2.12148,-1.29151 0.80203,-0.18647 1.60383,-0.13405 2.40541,0.15726 0.5874,0.21349 1.06553,0.52753 1.43439,0.94212 0.36883,0.41461 0.62478,0.87303 0.76783,1.37526 l 1.75457,-4.82777 1.64291,0.59709 -4.89012,13.45534 z m -3.45452,-6.76249 c -0.45366,1.24825 -0.52968,2.27699 -0.22806,3.08624 0.30162,0.80925 0.81038,1.34397 1.52629,1.60415 0.72202,0.26241 1.44273,0.19011 2.16213,-0.21689 0.7194,-0.40701 1.29925,-1.21628 1.73957,-2.42781 0.48478,-1.3339 0.5836,-2.40632 0.29645,-3.21724 -0.28716,-0.81092 -0.80705,-1.35314 -1.55966,-1.62667 -0.73427,-0.26685 -1.45665,-0.18996 -2.16714,0.23066 -0.7105,0.42064 -1.30036,1.27649 -1.76958,2.56756 z"
           style="font-size:20px;marker:none"
           id="path3053" />
        <path
           d="m 303.01699,534.40873 1.70379,0.66852 c -0.54096,0.95686 -1.2594,1.62292 -2.15534,1.99818 -0.89596,0.37526 -1.92729,0.41338 -3.094,0.11438 -1.46945,-0.37659 -2.51862,-1.1277 -3.14754,-2.25331 -0.62892,-1.12562 -0.73407,-2.50513 -0.31546,-4.13854 0.43315,-1.69016 1.20449,-2.89041 2.31401,-3.60076 1.10951,-0.71032 2.358,-0.8877 3.74546,-0.53213 1.34329,0.34427 2.32346,1.08273 2.94051,2.21537 0.61702,1.13266 0.713,2.5283 0.28793,4.18693 -0.0259,0.10091 -0.0678,0.25146 -0.12583,0.45166 l -7.49224,-1.92012 c -0.21978,1.11982 -0.12419,2.04491 0.28679,2.77527 0.41098,0.73036 1.03585,1.20302 1.87463,1.41798 0.62435,0.16001 1.19928,0.13262 1.7248,-0.0822 0.5255,-0.2148 1.00966,-0.64855 1.45249,-1.30124 z m -4.8853,-4.18564 5.60972,1.43766 c 0.14089,-0.86447 0.0889,-1.55324 -0.15597,-2.0663 -0.37429,-0.79488 -0.99343,-1.30303 -1.85742,-1.52447 -0.78203,-0.20041 -1.50657,-0.10718 -2.17362,0.27969 -0.66706,0.38688 -1.1413,1.01135 -1.42271,1.87342 z"
           style="font-size:20px;marker:none"
           id="path3055" />
        <path
           d="m 310.19615,537.58337 -0.0247,1.57317 c -0.50542,0.015 -0.95036,-0.012 -1.33483,-0.0811 -0.62796,-0.11285 -1.0971,-0.29968 -1.40743,-0.5605 -0.31032,-0.26082 -0.50689,-0.5657 -0.58971,-0.91462 -0.0828,-0.34893 -0.031,-1.04242 0.15558,-2.08048 l 1.05534,-5.87273 -1.26874,-0.22799 0.24181,-1.34564 1.26874,0.228 0.45426,-2.52787 1.90703,-0.72888 -0.6408,3.56592 1.73971,0.31263 -0.24181,1.34564 -1.73971,-0.31263 -1.07262,5.96884 c -0.0887,0.4934 -0.11523,0.81606 -0.0797,0.96796 0.0355,0.15192 0.11471,0.2819 0.23751,0.38996 0.12279,0.10806 0.31235,0.18512 0.56866,0.23117 0.19223,0.0346 0.44937,0.0576 0.77141,0.0692 z"
           style="font-size:20px;marker:none"
           id="path3057" />
        <path
           d="m 316.88721,544.05908 0.81976,-14.32227 1.59895,0.0915 -0.077,1.34546 c 0.40711,-0.5049 0.85545,-0.87539 1.345,-1.11149 0.48955,-0.23607 1.07231,-0.33476 1.7483,-0.29608 0.88396,0.0506 1.65091,0.32274 2.30085,0.8164 0.64993,0.49369 1.12342,1.16474 1.42049,2.01317 0.29704,0.84845 0.4173,1.76665 0.36076,2.75461 -0.0607,1.05947 -0.30537,2.00243 -0.73414,2.82888 -0.4288,0.82646 -1.01848,1.44482 -1.76905,1.85507 -0.75059,0.41025 -1.52562,0.5925 -2.32508,0.54674 -0.58499,-0.0335 -1.10278,-0.18702 -1.55337,-0.46061 -0.4506,-0.27359 -0.81461,-0.60743 -1.09201,-1.00154 l -0.28851,5.04058 z m 2.10929,-8.99573 c -0.0763,1.33245 0.13711,2.33261 0.64013,3.00046 0.50302,0.66786 1.13802,1.02374 1.905,1.06764 0.77997,0.0446 1.4667,-0.247 2.0602,-0.87492 0.59348,-0.62792 0.92985,-1.6341 1.0091,-3.01856 0.0755,-1.31945 -0.13931,-2.32294 -0.64446,-3.01049 -0.50516,-0.68754 -1.13472,-1.05288 -1.88869,-1.09605 -0.74748,-0.0428 -1.42883,0.26874 -2.04405,0.93453 -0.61523,0.66581 -0.96097,1.66494 -1.03723,2.99739 z"
           style="font-size:20px;marker:none"
           id="path3059" />
        <path
           d="m 335.20557,536.99129 1.82369,0.1548 c -0.24558,1.07141 -0.74421,1.91471 -1.4959,2.52992 -0.75172,0.61521 -1.72934,0.94591 -2.93287,0.99208 -1.51582,0.0582 -2.73564,-0.3625 -3.65948,-1.26199 -0.92384,-0.89948 -1.41808,-2.1917 -1.48273,-3.87666 -0.0669,-1.7435 0.33007,-3.1139 1.19091,-4.11118 0.86083,-0.99727 2.00687,-1.52337 3.43811,-1.5783 1.38569,-0.0532 2.53577,0.37507 3.45023,1.28468 0.91444,0.90963 1.40449,2.21993 1.47015,3.9309 0.004,0.1041 0.007,0.26036 0.008,0.46878 l -7.72868,0.29654 c 0.10873,1.13599 0.46421,1.99539 1.06643,2.5782 0.60221,0.5828 1.33594,0.85761 2.20119,0.82441 0.64405,-0.0247 1.18729,-0.21495 1.62971,-0.57072 0.44241,-0.35576 0.78275,-0.90958 1.02103,-1.66146 z m -5.87619,-2.61842 5.78675,-0.22203 c -0.11152,-0.86876 -0.3578,-1.51408 -0.73883,-1.93599 -0.58545,-0.65511 -1.32381,-0.96557 -2.21507,-0.93138 -0.8067,0.031 -1.47456,0.32696 -2.00356,0.88801 -0.52901,0.56107 -0.80544,1.29486 -0.82929,2.20139 z m -0.10189,-6.22138 -0.0768,-2.00048 1.83459,-0.0704 0.0768,2.00048 z m 3.6399,-0.13965 -0.0768,-2.00048 1.83459,-0.0704 0.0768,2.00049 z"
           style="font-size:20px;marker:none"
           id="path3061" />
        <path
           d="m 339.33473,539.99046 -1.19317,-10.30222 1.57152,-0.18201 0.18089,1.56182 c 0.31632,-0.77722 0.63077,-1.3019 0.94333,-1.57406 0.31256,-0.27213 0.67256,-0.43179 1.08,-0.47899 0.58851,-0.0681 1.20844,0.0501 1.8598,0.35479 l -0.41382,1.68969 c -0.45605,-0.20277 -0.89749,-0.27945 -1.32432,-0.23002 -0.38156,0.0442 -0.71103,0.19869 -0.98839,0.46347 -0.27737,0.26479 -0.45714,0.60839 -0.53929,1.0308 -0.12211,0.64333 -0.14047,1.33362 -0.0551,2.07087 l 0.62468,5.39363 z"
           style="font-size:20px;marker:none"
           id="path3063" />
        <path
           d="m 354.84511,535.7795 0.58245,1.46157 c -0.46073,0.20832 -0.88183,0.35455 -1.26327,0.4387 -0.62305,0.13745 -1.12796,0.1455 -1.51474,0.0242 -0.38679,-0.12135 -0.68553,-0.32712 -0.89622,-0.61732 -0.2107,-0.2902 -0.42965,-0.95026 -0.65686,-1.98019 l -1.28543,-5.82669 -1.2588,0.2777 -0.29453,-1.33508 1.25879,-0.2777 -0.5533,-2.50806 1.47979,-1.4065 0.78051,3.53797 1.72608,-0.38079 0.29453,1.33509 -1.72607,0.38079 1.30647,5.92205 c 0.10799,0.48954 0.20761,0.79757 0.29887,0.92411 0.0913,0.12655 0.21433,0.21606 0.36926,0.26856 0.15492,0.0525 0.35953,0.0507 0.61383,-0.005 0.19072,-0.0421 0.43694,-0.11972 0.73864,-0.23295 z"
           style="font-size:20px;marker:none"
           id="path3065" />
        <path
           d="m 362.70421,531.71911 1.80469,-0.30472 c 0.0293,1.09879 -0.24337,2.03978 -0.81797,2.82296 -0.5746,0.78319 -1.43892,1.34716 -2.59294,1.69192 -1.45346,0.43421 -2.73964,0.33093 -3.85855,-0.30985 -1.11891,-0.64078 -1.91969,-1.76898 -2.40235,-3.38463 -0.49944,-1.67178 -0.45664,-3.09786 0.1284,-4.27827 0.58503,-1.18038 1.56373,-1.97557 2.93609,-2.38557 1.32869,-0.39693 2.54921,-0.26893 3.66156,0.38398 1.11234,0.65294 1.91357,1.7997 2.4037,3.44029 0.0298,0.0998 0.0714,0.25046 0.12482,0.45193 l -7.41074,2.21392 c 0.3885,1.07301 0.947,1.81666 1.67549,2.23093 0.72849,0.41428 1.50757,0.49749 2.33722,0.24964 0.61756,-0.18449 1.09622,-0.50415 1.43598,-0.95898 0.33975,-0.45482 0.53128,-1.07601 0.5746,-1.86355 z m -6.34344,-1.07083 5.5487,-1.65765 c -0.32457,-0.81352 -0.72395,-1.37707 -1.19814,-1.69067 -0.73028,-0.48847 -1.52272,-0.60506 -2.37732,-0.34976 -0.77352,0.23109 -1.34649,0.68424 -1.71892,1.35946 -0.37244,0.67523 -0.45721,1.45477 -0.25432,2.33862 z m -1.64964,-5.99955 -0.57304,-1.91818 1.75911,-0.52553 0.57305,1.91819 z m 3.49017,-1.04266 -0.57305,-1.91819 1.75912,-0.52552 0.57304,1.91818 z"
           style="font-size:20px;marker:none"
           id="path3067" />
        <path
           d="m 372.72573,532.52176 1.65605,-0.49255 c 0.28788,0.4476 0.63024,0.71172 1.02709,0.79237 0.53292,0.11054 1.14157,0.006 1.82595,-0.31319 0.73746,-0.34411 1.23796,-0.75726 1.50151,-1.23944 0.26353,-0.48219 0.34222,-1.0218 0.23606,-1.61885 -0.0688,-0.36303 -0.34843,-1.06234 -0.83884,-2.09795 -0.31352,1.14491 -0.98946,1.95962 -2.02781,2.44413 -1.29205,0.60288 -2.50953,0.60342 -3.65246,0.002 -1.14293,-0.60181 -2.01859,-1.55463 -2.62698,-2.85848 -0.41843,-0.89676 -0.64229,-1.7999 -0.67155,-2.70944 -0.0293,-0.90952 0.16802,-1.71461 0.59184,-2.41528 0.42383,-0.70065 1.05167,-1.24506 1.88353,-1.63323 1.10915,-0.51753 2.23284,-0.49585 3.37105,0.0651 l -0.52856,-1.13275 1.46904,-0.68548 3.79074,8.12396 c 0.68271,1.46315 1.01756,2.56954 1.00456,3.31918 -0.013,0.74965 -0.25995,1.45218 -0.7408,2.10761 -0.48085,0.65543 -1.19326,1.20337 -2.13721,1.64384 -1.12096,0.52304 -2.14426,0.6934 -3.06989,0.51106 -0.92565,-0.18234 -1.61342,-0.78639 -2.06332,-1.81216 z m -1.31593,-6.26134 c 0.57536,1.23306 1.24001,2.01852 1.99397,2.3564 0.75396,0.33789 1.49967,0.33478 2.23714,-0.009 0.73157,-0.34135 1.21369,-0.90936 1.44637,-1.70404 0.23268,-0.79466 0.0682,-1.79377 -0.49337,-2.99733 -0.53682,-1.15044 -1.19666,-1.89864 -1.97952,-2.2446 -0.78286,-0.34594 -1.53418,-0.35099 -2.25395,-0.0152 -0.70797,0.33036 -1.17554,0.89877 -1.40271,1.70523 -0.22717,0.80648 -0.0765,1.77609 0.45207,2.90883 z"
           style="font-size:20px;marker:none"
           id="path3069" />
        <path
           d="m 376.70907,515.97614 -0.98694,-1.78653 1.53865,-0.84999 0.98693,1.78653 z m 5.93238,15.34328 -0.43187,-1.4684 c 0.35181,-0.0902 0.61604,-0.18412 0.7927,-0.28171 0.31342,-0.17315 0.48961,-0.40622 0.52857,-0.69922 0.039,-0.293 -0.17138,-0.8555 -0.631,-1.68751 l -5.26995,-9.53958 1.53864,-0.84999 5.28884,9.57377 c 0.61703,1.11694 0.90143,1.97508 0.85321,2.57444 -0.0556,0.77449 -0.51366,1.39942 -1.37415,1.87479 -0.41601,0.22981 -0.84767,0.39761 -1.29499,0.50341 z"
           style="font-size:20px;marker:none"
           id="path3071" />
        <path
           d="m 380.17594,513.99023 -1.04544,-1.73015 1.50448,-0.90909 1.04544,1.73016 z m 6.35852,10.52304 -5.36358,-8.87646 1.50448,-0.90908 5.36358,8.87646 z"
           style="font-size:20px;marker:none"
           id="path3073" />
        <path
           d="m 392.63824,518.74155 1.07147,1.15213 c -0.35426,0.3608 -0.694,0.64938 -1.01922,0.86575 -0.5312,0.35341 -0.99905,0.54346 -1.40354,0.57016 -0.4045,0.0267 -0.75743,-0.0572 -1.05879,-0.25154 -0.30136,-0.1944 -0.74414,-0.73065 -1.32834,-1.60876 l -3.30507,-4.96781 -1.07324,0.71402 -0.7573,-1.13829 1.07324,-0.71402 -1.42264,-2.13836 0.87118,-1.84637 2.00684,3.01647 1.47165,-0.97908 0.7573,1.13829 -1.47165,0.97908 3.35916,5.04912 c 0.27768,0.41737 0.48193,0.66856 0.61276,0.75354 0.13083,0.085 0.27795,0.12396 0.44138,0.11689 0.16341,-0.007 0.35353,-0.0827 0.57035,-0.22698 0.16261,-0.10818 0.36409,-0.26959 0.60446,-0.48424 z"
           style="font-size:20px;marker:none"
           id="path3075" />
        <path
           d="m 394.93814,519.10625 -8.77158,-11.31455 1.38924,-1.077 3.14723,4.05966 c 0.0659,-1.25381 0.59285,-2.26365 1.58075,-3.02953 0.60715,-0.47068 1.22728,-0.75991 1.86041,-0.8677 0.63313,-0.10776 1.20971,-0.0255 1.72975,0.24684 0.52003,0.27234 1.09118,0.80984 1.71346,1.6125 l 4.02678,5.19419 -1.38923,1.077 -4.02679,-5.19419 c -0.5385,-0.69461 -1.08091,-1.08346 -1.62723,-1.16656 -0.54632,-0.0831 -1.09475,0.0888 -1.6453,0.51559 -0.41162,0.31912 -0.71604,0.72605 -0.91324,1.22079 -0.19721,0.49475 -0.23138,0.98462 -0.10253,1.4696 0.12885,0.48499 0.44258,1.04906 0.94119,1.69222 l 3.47632,4.48414 z"
           style="font-size:20px;marker:none"
           id="path3077" />
        <path
           d="m 406.53541,504.88264 1.47577,-1.08254 c 0.51949,0.96868 0.69834,1.9319 0.53654,2.88969 -0.16181,0.95779 -0.68091,1.84978 -1.5573,2.67596 -1.10378,1.04055 -2.29941,1.52573 -3.58689,1.45552 -1.28749,-0.0702 -2.50956,-0.71878 -3.66622,-1.94573 -1.19685,-1.26957 -1.79888,-2.56307 -1.8061,-3.88048 -0.007,-1.31739 0.51029,-2.46733 1.55248,-3.44984 1.00904,-0.95121 2.15709,-1.38483 3.44417,-1.30083 1.28708,0.084 2.51788,0.74897 3.69241,1.99486 0.0714,0.0758 0.17626,0.19173 0.31443,0.34778 l -5.62785,5.30545 c 0.8289,0.78437 1.66182,1.1981 2.49876,1.24119 0.83694,0.0431 1.57044,-0.23232 2.2005,-0.82628 0.46898,-0.44212 0.75317,-0.94265 0.85255,-1.50161 0.0994,-0.55894 -0.008,-1.19999 -0.32325,-1.92314 z m -6.14892,1.89119 4.21378,-3.9724 c -0.65527,-0.58119 -1.26516,-0.90544 -1.82966,-0.97276 -0.87185,-0.1086 -1.63228,0.14301 -2.28128,0.75482 -0.58742,0.55378 -0.89594,1.21594 -0.92558,1.98649 -0.0296,0.77057 0.24462,1.50518 0.82274,2.20385 z m -4.16766,-4.62023 -1.37325,-1.4567 1.3359,-1.25938 1.37326,1.45671 z m 2.65049,-2.49865 -1.37325,-1.45671 1.3359,-1.25937 1.37326,1.4567 z"
           style="font-size:20px;marker:none"
           id="path3079" />
      </g>
    </g>
  </g>
</svg>
